<svg xmlns="http://www.w3.org/2000/svg" viewBox="0 0 100 100"><path fill="none" stroke="#000" d="M51 11h2c1.32 5.78 6.87 17.19 14 16.58 2.7-.23 6.95-3.44 13-4.58-1.44 3.75-6.05 10.04-6.01 13 .03 3.17 2.96 5.88 5.03 8 6.58 6.77 7.35 7.12 15.98 10v2l-18 9-1-1 7-11c-2.62.5-5.62 1.07-7.31 3.39-1.36 1.85-.9 3.53-.93 5.61-.16 10.38-1.07 12.37 2.24 23H67c.91-2.94 3.77-11.74-2.93-10.26L57 79c-5.32-6.11-6.78-3.35-12 1-3.28-3.98-3.83-4.58-9-5l2 11-9 1 1-19c-6.64-1.05-7.74-3.95-13-7.39-3.5-2.3-7.08-3.3-11-4.61v-2c2.86-.85 6.4-1.75 8.96-3.22 3.3-1.89 11.17-8.93 11.35-12.78.17-3.59-3.53-7.03-4.31-14 3.3 1.4 9.43 5.9 12 6.04 7.71.44 14.33-13.3 17-19.04Zm1 11c-7.86 5.63-15.38 14.8-22.28 21.72-2.52 2.51-7.93 6.73-8.57 10.28-.83 4.67 5.25 9.28 8.85 11-.01-7.28.64-7.96-5-13 11.76-3.3 5.14-5.65 13.05-12.67C49.15 29.49 55.36 34.71 66 38L52 22Zm-2.69 16.62c-4.19 3.5-1.55 14.7 3.39 12.72 2.5-.99 5.42-14.14-3.39-12.72ZM62 42c-2.56 6.48-.46 8.77 6 9-1.39-4.71-2.15-5.92-6-9Zm-20 1c-4.2 2.24-4.44 3.68-6 8 6.8 1.43 5.98-2.7 6-8Zm30 1c-.37 4.58 1.76 6.26 6 7-1.52-4.24-2.22-4.65-6-7ZM35.79 71c2.18-.07 4.82.14 6.19-1.6 1.79-2.29.64-11.59-2.27-12.74-5-1.98-4.47 4.69-3.92 7.34v7Zm13.52-14.18c-4.08 3.2-1.59 12.53 1 13.52 7.09 2.72 5.76-11.26 3.09-13.52-1.46-.92-2.55-.45-4.09 0ZM68 71c.86-3.03 2.21-11.76-.6-13.98-1.49-1.18-4.57-1-6.4-1.02 0 13.33-.79 12.81 7 15Z"/></svg>