<svg xmlns="http://www.w3.org/2000/svg" viewBox="0 0 100 100"><path fill="none" stroke="#000" d="M50 57c-3.87-6.75-4.84-21.95-6.25-30-.84-4.8-2.73-11.03-2.44-16C41.56 6.85 47.38-.43 52 1.17c3.46 1.2 7.35 6.21 7.85 9.83.55 3.95-1.22 7.2-1.74 11l-1.35 11-1.65 7c-.9 6.6.23 12.44-5.11 17ZM12 18c3.92 2.11 13.2 9.62 16.91 8.5 2.29-.69 3.5-3.24 8.33-5.5.02 2 .63 5.09 0 7-.57 3.95-11.98 15.2-15.41 19-1.65 1.83-5.9 5.66-6.21 8-.56 4.24 11.06 12.89 14.1 16.09l14.24 13.94c1.49 1.47 4.1 4.73 6.17 5.07 3.49.58 8.27-6.7 10.31-9.1L86 54 64.06 33c-1.83-2-5.52-6.52-3.03-9.34 2.23-2.54 5.49 1.74 8.97 1.91 3.44.17 12.48-5.26 18-6.57-1.91 4.23-8.88 12.21-8.72 16 .39 8.99 19.68 14.02 11.41 25-1.13 1.49-3.28 3.55-4.69 4.83L79 71l9 18c-7.33-2.09-12.05-9.3-17-7.13-2.73 1.19-11.99 11.32-15 14.07-2.25 2.05-4.7 4.33-8 3.4-6.07-1.71-12.53-14.84-19-16.3-5.33-1.2-8.06 4.33-17 4.96 2.11-3.64 8.48-10.95 7.41-15C17.99 67.58 6.65 60.95 6.2 55.03c-.52-6.74 11.45-11.8 12.69-17.05C20.12 32.73 12.95 24.92 12 18Zm49 55c-1.45 1.45-5.56 5.67-7 6.63-5.55 3.68-12.32-5.03-12.26-7.66.09-3.98 6.23-9.62 10.27-7.89 1.39.59 2.89 1.95 3.97 2.98 1.94 1.82 3.48 3.79 5.02 5.94Z"/></svg>