<svg xmlns="http://www.w3.org/2000/svg" viewBox="0 0 100 100"><path fill="none" stroke="#000" d="M46.34 7.04c9.08-2.76 9.46 8.35 3.61 10.12-4.61 1.38-9.72-4.42-3.61-10.12ZM7 19c11.11 2.89 18.69 2 30 2h40c7.03-.09 9.9-2.02 17 0L81.06 43l-8.81 16-11.5 17L50 93c-4.23-2.94-8.66-12.27-11.42-17L16.26 39C12.77 33.29 5.82 25.86 7 19Zm43 28L39.61 33.02 25 32l23 35h2l6.1-8 9.02-14L73 32H57l-7 15Zm-32.95 9.2c8.32.15 8.13 9.35 1.94 10.43-5.66.99-8.93-7-1.94-10.43Zm59.26.83c8.16-2.79 10.76 5.96 5.54 8.94-5.33 3.06-10.83-3.28-5.54-8.94Z"/></svg>